# xmcd CD database file
#
# Track frame offsets:
#	150
#	12292
#	23998
#	34216
#	45377
#	54326
#	67973
#	80720
#	92218
#	104026
#	116510
#	129380
#	140681
#	150705
#	162064
#	173005
#	185325
#	197327
#	208615
#	230123
#	256452
#	270102
#	281598
#	292218
#
# Disc length: 4036 seconds
#
# Revision: 0
# Processed by: cddbd v1.5.2PL0 Copyright (c) Steve Scherf et al.
# Submitted via: CDex 1.51
#
DISCID=550fc218
DTITLE=Jimmy McCracklin - I Had To Get With It, The Best of the Imperial and Minit Years
DYEAR=2004
DGENRE=Blues
TTITLE0=The Walk
TTITLE1=Looking For A Woman
TTITLE2=Thats The Way It Goes
TTITLE3=Every Night every Day
TTITLE4=I Did Wrong
TTITLE5=I Had To Get WithIt
TTITLE6=Just Got To Know
TTITLE7=Think
TTITLE8=Get Back
TTITLE9=RM Blues
TTITLE10=I Don't Care
TTITLE11=I'll See It Through
TTITLE12=Pretty Little Sweet Thing
TTITLE13=What's Going On
TTITLE14=Stinger
TTITLE15=You Ain't Nothing But A Devil
TTITLE16=My Answer
TTITLE17=Come On Home (Back Where You Belong)
TTITLE18=Arkansas Pts 1 and 2
TTITLE19=Dog Pts 1 and 2
TTITLE20=Get Together
TTITLE21=Steppin' Up In Class
TTITLE22=Let The Door Hit You
TTITLE23=Hookie
EXTD=YEAR: 2004
EXTT0=
EXTT1=
EXTT2=
EXTT3=
EXTT4=
EXTT5=
EXTT6=
EXTT7=
EXTT8=
EXTT9=
EXTT10=
EXTT11=
EXTT12=
EXTT13=
EXTT14=
EXTT15=
EXTT16=
EXTT17=
EXTT18=
EXTT19=
EXTT20=
EXTT21=
EXTT22=
EXTT23=
PLAYORDER=
